<?plantuml 1.2026.2?><svg xmlns="http://www.w3.org/2000/svg" xmlns:xlink="http://www.w3.org/1999/xlink" contentStyleType="text/css" data-diagram-type="DESCRIPTION" height="642px" preserveAspectRatio="none" style="width:630px;height:642px;background:#FFFFFF;" version="1.1" viewBox="0 0 630 642" width="630px" zoomAndPan="magnify"><defs/><g><!--cluster venue.event.manager--><g class="cluster" data-qualified-name="venue.event.manager" data-source-line="17" id="ent0002"><rect fill="#F8FAFC" height="629.5" style="stroke:#64748B;stroke-width:1;" width="617" x="7" y="7"/><text fill="#000000" font-family="'Helvetica'" font-size="12" font-weight="bold" lengthAdjust="spacing" textLength="122.7188" x="254.1406" y="21.457">venue.event.manager</text></g><!--cluster Domain--><g class="cluster" data-qualified-name="venue.event.manager.Domain" data-source-line="21" id="ent0006"><rect fill="#DCFCE7" height="309.5" style="stroke:#64748B;stroke-width:1;" width="375" x="68" y="295"/><text fill="#000000" font-family="'Helvetica'" font-size="12" font-weight="bold" lengthAdjust="spacing" textLength="81.3398" x="214.8301" y="309.457">domain.model</text></g><!--entity Service--><g class="entity" data-qualified-name="venue.event.manager.Service" data-source-line="18" id="ent0003"><path d="M294,171 L349.7031,171 A3.75,3.75 0 0 1 352.2031,173.5 L359.2031,192.0938 L373.7031,192.0938 A2.5,2.5 0 0 1 376.2031,194.5938 L376.2031,221.6875 A2.5,2.5 0 0 1 373.7031,224.1875 L294,224.1875 A2.5,2.5 0 0 1 291.5,221.6875 L291.5,173.5 A2.5,2.5 0 0 1 294,171" fill="#E0F2FE" style="stroke:#64748B;stroke-width:0.5;"/><line style="stroke:#64748B;stroke-width:0.5;" x1="291.5" x2="359.2031" y1="192.0938" y2="192.0938"/><text fill="#1E293B" font-family="'Helvetica'" font-size="12" font-weight="bold" lengthAdjust="spacing" textLength="42.7031" x="301.5" y="186.457">Service</text><text fill="#1E293B" font-family="'Helvetica'" font-size="12" lengthAdjust="spacing" textLength="38.0098" x="301.5" y="211.5508">service</text></g><!--entity Repository--><g class="entity" data-qualified-name="venue.event.manager.Repository" data-source-line="19" id="ent0004"><path d="M26,171 L101.6777,171 A3.75,3.75 0 0 1 104.1777,173.5 L111.1777,192.0938 L125.6777,192.0938 A2.5,2.5 0 0 1 128.1777,194.5938 L128.1777,221.6875 A2.5,2.5 0 0 1 125.6777,224.1875 L26,224.1875 A2.5,2.5 0 0 1 23.5,221.6875 L23.5,173.5 A2.5,2.5 0 0 1 26,171" fill="#FEF3C7" style="stroke:#64748B;stroke-width:0.5;"/><line style="stroke:#64748B;stroke-width:0.5;" x1="23.5" x2="111.1777" y1="192.0938" y2="192.0938"/><text fill="#1E293B" font-family="'Helvetica'" font-size="12" font-weight="bold" lengthAdjust="spacing" textLength="62.6777" x="33.5" y="186.457">Repository</text><text fill="#1E293B" font-family="'Helvetica'" font-size="12" lengthAdjust="spacing" textLength="52.6875" x="33.5" y="211.5508">repository</text></g><!--entity Jdbc--><g class="entity" data-qualified-name="venue.event.manager.Jdbc" data-source-line="20" id="ent0005"><path d="M25.5,41 L66.5078,41 A3.75,3.75 0 0 1 69.0078,43.5 L76.0078,62.0938 L128.5352,62.0938 A2.5,2.5 0 0 1 131.0352,64.5938 L131.0352,91.6875 A2.5,2.5 0 0 1 128.5352,94.1875 L25.5,94.1875 A2.5,2.5 0 0 1 23,91.6875 L23,43.5 A2.5,2.5 0 0 1 25.5,41" fill="#FFEDD5" style="stroke:#64748B;stroke-width:0.5;"/><line style="stroke:#64748B;stroke-width:0.5;" x1="23" x2="76.0078" y1="62.0938" y2="62.0938"/><text fill="#1E293B" font-family="'Helvetica'" font-size="12" font-weight="bold" lengthAdjust="spacing" textLength="28.0078" x="33" y="56.457">Jdbc</text><text fill="#1E293B" font-family="'Helvetica'" font-size="12" lengthAdjust="spacing" textLength="78.0352" x="33" y="81.5508">repository.jdbc</text></g><!--entity Config--><g class="entity" data-qualified-name="venue.event.manager.Config" data-source-line="30" id="ent0014"><path d="M530.5,171 L581.4863,171 A3.75,3.75 0 0 1 583.9863,173.5 L590.9863,192.0938 L605.4863,192.0938 A2.5,2.5 0 0 1 607.9863,194.5938 L607.9863,221.6875 A2.5,2.5 0 0 1 605.4863,224.1875 L530.5,224.1875 A2.5,2.5 0 0 1 528,221.6875 L528,173.5 A2.5,2.5 0 0 1 530.5,171" fill="#EDE9FE" style="stroke:#64748B;stroke-width:0.5;"/><line style="stroke:#64748B;stroke-width:0.5;" x1="528" x2="590.9863" y1="192.0938" y2="192.0938"/><text fill="#1E293B" font-family="'Helvetica'" font-size="12" font-weight="bold" lengthAdjust="spacing" textLength="37.9863" x="538" y="186.457">Config</text><text fill="#1E293B" font-family="'Helvetica'" font-size="12" lengthAdjust="spacing" textLength="32.0215" x="538" y="211.5508">config</text></g><!--entity Exception--><g class="entity" data-qualified-name="venue.event.manager.Exception" data-source-line="31" id="ent0015"><path d="M470,329.5 L540.3457,329.5 A3.75,3.75 0 0 1 542.8457,332 L549.8457,350.5938 L564.3457,350.5938 A2.5,2.5 0 0 1 566.8457,353.0938 L566.8457,380.1875 A2.5,2.5 0 0 1 564.3457,382.6875 L470,382.6875 A2.5,2.5 0 0 1 467.5,380.1875 L467.5,332 A2.5,2.5 0 0 1 470,329.5" fill="#FCE7F3" style="stroke:#64748B;stroke-width:0.5;"/><line style="stroke:#64748B;stroke-width:0.5;" x1="467.5" x2="549.8457" y1="350.5938" y2="350.5938"/><text fill="#1E293B" font-family="'Helvetica'" font-size="12" font-weight="bold" lengthAdjust="spacing" textLength="57.3457" x="477.5" y="344.957">Exception</text><text fill="#1E293B" font-family="'Helvetica'" font-size="12" lengthAdjust="spacing" textLength="51.3691" x="477.5" y="370.0508">exception</text></g><!--entity user--><g class="entity" data-qualified-name="venue.event.manager.Domain.user" data-source-line="22" id="ent0007"><path d="M114,337 L152.3477,337 A3.75,3.75 0 0 1 154.8477,339.5 L161.8477,358.0938 L176.3477,358.0938 A2.5,2.5 0 0 1 178.8477,360.5938 L178.8477,372.5938 A2.5,2.5 0 0 1 176.3477,375.0938 L114,375.0938 A2.5,2.5 0 0 1 111.5,372.5938 L111.5,339.5 A2.5,2.5 0 0 1 114,337" fill="#F8FAFC" style="stroke:#64748B;stroke-width:0.5;"/><line style="stroke:#64748B;stroke-width:0.5;" x1="111.5" x2="161.8477" y1="358.0938" y2="358.0938"/><text fill="#1E293B" font-family="'Helvetica'" font-size="12" font-weight="bold" lengthAdjust="spacing" textLength="25.3477" x="121.5" y="352.457">user</text></g><!--entity venue--><g class="entity" data-qualified-name="venue.event.manager.Domain.venue" data-source-line="23" id="ent0008"><path d="M216,337 L263.6816,337 A3.75,3.75 0 0 1 266.1816,339.5 L273.1816,358.0938 L287.6816,358.0938 A2.5,2.5 0 0 1 290.1816,360.5938 L290.1816,372.5938 A2.5,2.5 0 0 1 287.6816,375.0938 L216,375.0938 A2.5,2.5 0 0 1 213.5,372.5938 L213.5,339.5 A2.5,2.5 0 0 1 216,337" fill="#F8FAFC" style="stroke:#64748B;stroke-width:0.5;"/><line style="stroke:#64748B;stroke-width:0.5;" x1="213.5" x2="273.1816" y1="358.0938" y2="358.0938"/><text fill="#1E293B" font-family="'Helvetica'" font-size="12" font-weight="bold" lengthAdjust="spacing" textLength="34.6816" x="223.5" y="352.457">venue</text></g><!--entity resource--><g class="entity" data-qualified-name="venue.event.manager.Domain.resource" data-source-line="24" id="ent0009"><path d="M328,337 L391.6953,337 A3.75,3.75 0 0 1 394.1953,339.5 L401.1953,358.0938 L415.6953,358.0938 A2.5,2.5 0 0 1 418.1953,360.5938 L418.1953,372.5938 A2.5,2.5 0 0 1 415.6953,375.0938 L328,375.0938 A2.5,2.5 0 0 1 325.5,372.5938 L325.5,339.5 A2.5,2.5 0 0 1 328,337" fill="#F8FAFC" style="stroke:#64748B;stroke-width:0.5;"/><line style="stroke:#64748B;stroke-width:0.5;" x1="325.5" x2="401.1953" y1="358.0938" y2="358.0938"/><text fill="#1E293B" font-family="'Helvetica'" font-size="12" font-weight="bold" lengthAdjust="spacing" textLength="50.6953" x="335.5" y="352.457">resource</text></g><!--entity request--><g class="entity" data-qualified-name="venue.event.manager.Domain.request" data-source-line="25" id="ent0010"><path d="M104,443.5 L160.3477,443.5 A3.75,3.75 0 0 1 162.8477,446 L169.8477,464.5938 L184.3477,464.5938 A2.5,2.5 0 0 1 186.8477,467.0938 L186.8477,479.0938 A2.5,2.5 0 0 1 184.3477,481.5938 L104,481.5938 A2.5,2.5 0 0 1 101.5,479.0938 L101.5,446 A2.5,2.5 0 0 1 104,443.5" fill="#F8FAFC" style="stroke:#64748B;stroke-width:0.5;"/><line style="stroke:#64748B;stroke-width:0.5;" x1="101.5" x2="169.8477" y1="464.5938" y2="464.5938"/><text fill="#1E293B" font-family="'Helvetica'" font-size="12" font-weight="bold" lengthAdjust="spacing" textLength="43.3477" x="111.5" y="458.957">request</text></g><!--entity event--><g class="entity" data-qualified-name="venue.event.manager.Domain.event" data-source-line="26" id="ent0011"><path d="M224,443.5 L268.3477,443.5 A3.75,3.75 0 0 1 270.8477,446 L277.8477,464.5938 L292.3477,464.5938 A2.5,2.5 0 0 1 294.8477,467.0938 L294.8477,479.0938 A2.5,2.5 0 0 1 292.3477,481.5938 L224,481.5938 A2.5,2.5 0 0 1 221.5,479.0938 L221.5,446 A2.5,2.5 0 0 1 224,443.5" fill="#F8FAFC" style="stroke:#64748B;stroke-width:0.5;"/><line style="stroke:#64748B;stroke-width:0.5;" x1="221.5" x2="277.8477" y1="464.5938" y2="464.5938"/><text fill="#1E293B" font-family="'Helvetica'" font-size="12" font-weight="bold" lengthAdjust="spacing" textLength="31.3477" x="231.5" y="458.957">event</text></g><!--entity booking--><g class="entity" data-qualified-name="venue.event.manager.Domain.booking" data-source-line="27" id="ent0012"><path d="M332,443.5 L391.6582,443.5 A3.75,3.75 0 0 1 394.1582,446 L401.1582,464.5938 L415.6582,464.5938 A2.5,2.5 0 0 1 418.1582,467.0938 L418.1582,479.0938 A2.5,2.5 0 0 1 415.6582,481.5938 L332,481.5938 A2.5,2.5 0 0 1 329.5,479.0938 L329.5,446 A2.5,2.5 0 0 1 332,443.5" fill="#F8FAFC" style="stroke:#64748B;stroke-width:0.5;"/><line style="stroke:#64748B;stroke-width:0.5;" x1="329.5" x2="401.1582" y1="464.5938" y2="464.5938"/><text fill="#1E293B" font-family="'Helvetica'" font-size="12" font-weight="bold" lengthAdjust="spacing" textLength="46.6582" x="339.5" y="458.957">booking</text></g><!--entity feedback--><g class="entity" data-qualified-name="venue.event.manager.Domain.feedback" data-source-line="28" id="ent0013"><path d="M103.5,542.5 L168.5254,542.5 A3.75,3.75 0 0 1 171.0254,545 L178.0254,563.5938 L192.5254,563.5938 A2.5,2.5 0 0 1 195.0254,566.0938 L195.0254,578.0938 A2.5,2.5 0 0 1 192.5254,580.5938 L103.5,580.5938 A2.5,2.5 0 0 1 101,578.0938 L101,545 A2.5,2.5 0 0 1 103.5,542.5" fill="#F8FAFC" style="stroke:#64748B;stroke-width:0.5;"/><line style="stroke:#64748B;stroke-width:0.5;" x1="101" x2="178.0254" y1="563.5938" y2="563.5938"/><text fill="#1E293B" font-family="'Helvetica'" font-size="12" font-weight="bold" lengthAdjust="spacing" textLength="52.0254" x="111" y="557.957">feedback</text></g><!--link Service to Domain--><g class="link" data-entity-1="ent0003" data-entity-2="ent0006" data-link-type="dependency" data-source-line="34" id="lnk16"><path d="M306.69,224.2 C287.21,240.81 259.51,261.11 231,271 C215.65,276.33 96.84,267.88 85,279 C81.9975,281.8188 79.5902,285.0692 77.6779,288.6055 C76.7217,290.3737 75.8894,292.2133 75.1682,294.1061 C75.0781,294.3427 77.0414,288.9419 76.9547,289.1801" fill="none" id="Service-to-Domain" style="stroke:#4A5568;stroke-width:1.4;"/><polygon fill="#4A5568" points="74.903,294.8184,81.7394,287.7287,76.6127,290.1198,74.2216,284.9931,74.903,294.8184" style="stroke:#4A5568;stroke-width:1.4;"/><text fill="#000000" font-family="'Helvetica'" font-size="12" lengthAdjust="spacing" textLength="107.3965" x="265" y="267.457">usa modelli e regole</text></g><!--reverse link Repository to Service--><g class="link" data-entity-1="ent0004" data-entity-2="ent0003" data-link-type="dependency" data-source-line="35" id="lnk18"><path d="M134.52,197.5 C182.55,197.5 246.72,197.5 291.37,197.5" fill="none" id="Repository-backto-Service" style="stroke:#4A5568;stroke-width:1.4;"/><polygon fill="#4A5568" points="128.52,197.5,137.52,201.5,133.52,197.5,137.52,193.5,128.52,197.5" style="stroke:#4A5568;stroke-width:1.4;"/><text fill="#000000" font-family="'Helvetica'" font-size="12" lengthAdjust="spacing" textLength="126.7559" x="147" y="190.957">dipende dalle interfacce</text></g><!--link Service to Config--><g class="link" data-entity-1="ent0003" data-entity-2="ent0014" data-link-type="dependency" data-source-line="36" id="lnk19"><path d="M376.65,197.5 C419.75,197.5 479.85,197.5 521.99,197.5" fill="none" id="Service-to-Config" style="stroke:#4A5568;stroke-width:1.4;"/><polygon fill="#4A5568" points="527.99,197.5,518.99,193.5,522.99,197.5,518.99,201.5,527.99,197.5" style="stroke:#4A5568;stroke-width:1.4;"/><text fill="#000000" font-family="'Helvetica'" font-size="12" lengthAdjust="spacing" textLength="115.3887" x="394.75" y="190.957">delimita le transazioni</text></g><!--link Service to Exception--><g class="link" data-entity-1="ent0003" data-entity-2="ent0015" data-link-type="dependency" data-source-line="37" id="lnk20"><path d="M369.58,224.03 C381.96,233.21 395.79,243.82 408,254 C437.32,278.46 464.8542,304.2218 486.5042,325.1318" fill="none" id="Service-to-Exception" style="stroke:#4A5568;stroke-width:1.4;"/><polygon fill="#4A5568" points="490.82,329.3,487.1252,320.1705,487.2235,325.8265,481.5675,325.9248,490.82,329.3" style="stroke:#4A5568;stroke-width:1.4;"/><text fill="#000000" font-family="'Helvetica'" font-size="12" lengthAdjust="spacing" textLength="138.7207" x="427" y="267.457">comunica errori applicativi</text></g><!--link Repository to Domain--><g class="link" data-entity-1="ent0004" data-entity-2="ent0006" data-link-type="dependency" data-source-line="39" id="lnk21"><path d="M76,224.34 C76,235.28 76,248.7488 76,262.8391 C76,269.8842 76,277.0848 76,284.2023 C76,287.7611 76,285.2991 76,288.7866" fill="none" id="Repository-to-Domain" style="stroke:#4A5568;stroke-width:1.4;"/><polygon fill="#4A5568" points="76,294.7866,80,285.7866,76,289.7866,72,285.7866,76,294.7866" style="stroke:#4A5568;stroke-width:1.4;"/><text fill="#000000" font-family="'Helvetica'" font-size="12" lengthAdjust="spacing" textLength="145.4238" x="77" y="267.457">espone modelli del dominio</text></g><!--link Jdbc to Repository--><g class="link" data-entity-1="ent0005" data-entity-2="ent0004" data-link-type="dependency" data-source-line="40" id="lnk22"><path d="M76.8,94.1 C76.63,116.42 76.4157,142.6402 76.2457,164.9502" fill="none" id="Jdbc-to-Repository" style="stroke:#4A5568;stroke-width:1.4;stroke-dasharray:7,7;"/><polygon fill="#4A5568" points="76.2,170.95,80.2685,161.9807,76.2381,165.9501,72.2687,161.9198,76.2,170.95" style="stroke:#4A5568;stroke-width:1.4;"/><text fill="#000000" font-family="'Helvetica'" font-size="12" lengthAdjust="spacing" textLength="62.0273" x="77" y="137.457">implementa</text></g><?plantuml-src TLFBajem4BpxArJcZ2ky5fP3gi2FIkMGGyWF27bi56ID8ybiTbFxxnaB0uRrSZ2QxfvIpqFsA7ND3Q-OTQyAw6kaS4sb0djZ3Zp75wbBLd1beSSaKF16kGor-y4hOE4tK2TmKl1mMBMJRy0cqnwvCGPVObHes6Y-MIoULe_ahuCKHmtMiaaqxv4r5qTUmixxDY0SrwM2uAE2_GiO_ROKbGORdNVNPQjiayLd3aqEfiEVvilvQklnrdE7JjBfysmRl0U1mvevP7jq3YkMo_PkYJe8BlU59z0DH41_Bggu9io4dOkhne8vIG4XuvRjpcSsIhzaqooz5ngeqKg7vjLhVrv3gY3DPl7oCtdqEzyBd_ET3gJEqYHPtAjphBZKKOKvA2zDFC16IPp5wR8pVPVIaFFm8-nh7i0DM6oC6AR-D63T0EDRDu3l4McwvG1J0EHx2ixK-tsL0dKXIrzVx8_KwIHzVkmq_1LGjwFqolGIKUUe5TcidVrbKcDw4NhyzTAkDMiiPxwBIh9s7KkaNRog5HIErBtPhMbnQj0vi9mhMc2f7PY22z7BCh8yj6cTPqe19IlfEAC4PxYs_8tyoLi6YM-srqnWrMXwZGpe8Hd9U5qh2fqyoI3ecHdtAm5ReuPhCVHbj2LIImpy7aNHGo6ogXLKD30U_0S0?></g></svg>